<svg xmlns="http://www.w3.org/2000/svg" width="650" height="200.383" viewBox="0 0 650 200.383" version="1.1" xmlns:xlink="http://www.w3.org/1999/xlink">
  <style>

path {
  stroke-width:2;
  fill: #b6b6b6;
  stroke: black;
}
  </style>
  <path d="M461.107 57.98c-1.322 1.04 -3.887 4.374 -5.7 7.407a6431.212 6431.212 0 0 1 -5.476 9.147c-1.197 1.996 -1.913 4.057 -1.59 4.579s0.092 0.644 -0.513 0.27c-1.204 -0.745 -3.515 2.71 -2.495 3.731 0.346 0.346 0.118 0.629 -0.508 0.629 -0.978 0 -3.876 4.435 -4.39 6.719 -0.094 0.417 -1.21 1.879 -2.482 3.25 -1.271 1.371 -2.102 3.042 -1.844 3.713s-0.132 1.568 -0.863 1.994C433.642 100.349 424.693 114.049 424.693 115.569c0 0.589 -0.347 1.072 -0.771 1.072s-1.635 1.683 -2.692 3.738 -2.469 4.411 -3.139 5.234c-0.669 0.822 -1.364 2.15 -1.544 2.952s-1.14 2.371 -2.134 3.489c-3.65 4.108 1.017 14.222 7.888 17.092 1.829 0.765 5.341 1.39 7.803 1.39 3.604 0 4.975 -0.535 7.022 -2.742 1.399 -1.507 2.775 -3.471 3.059 -4.364 0.308 -0.968 2.097 -1.874 4.441 -2.249 3.867 -0.618 8.978 -4.746 8.978 -7.251 0 -0.646 0.391 -1.323 0.868 -1.506s2.545 -2.967 4.595 -6.187c2.931 -4.605 3.439 -6.033 2.378 -6.69 -0.984 -0.607 -2.501 0.984 -5.587 5.856 -2.33 3.679 -4.031 7.245 -3.779 7.924s-0.068 1.128 -0.709 0.997c-0.64 -0.131 -1.185 0.436 -1.21 1.258s-0.605 1.551 -1.291 1.62 -1.359 0.215 -1.495 0.326c-0.994 0.801 -3.85 0.674 -4.388 -0.195 -0.376 -0.609 -0.186 -0.772 0.445 -0.382 0.606 0.375 1.617 -0.283 2.248 -1.462 0.93 -1.738 0.892 -1.995 -0.199 -1.36 -0.741 0.43 -0.117 -0.388 1.386 -1.817 1.83 -1.741 2.515 -3.165 2.074 -4.314 -0.417 -1.088 -0.269 -1.475 0.404 -1.06 0.83 0.513 2.642 -1.872 2.333 -3.071 -0.036 -0.138 0.721 -1.074 1.68 -2.082s2.194 -2.614 2.744 -3.57c2.129 -3.703 12.696 2.658 13.957 8.402 0.36 1.64 1.082 2.982 1.604 2.982 1.702 0 2.229 -3.205 0.883 -5.365 -1.174 -1.886 -1.146 -1.973 0.264 -0.808 1.355 1.12 1.625 0.978 1.905 -0.997 0.27 -1.903 1.101 -2.405 4.812 -2.899 2.467 -0.329 3.899 -0.665 3.181 -0.748s-1.05 -0.562 -0.739 -1.066c0.312 -0.504 -0.089 -1.572 -0.89 -2.374s-1.233 -1.682 -0.958 -1.956c0.877 -0.877 -8.945 -8.662 -12.367 -9.801 -2.956 -0.984 -3.121 -1.227 -1.592 -2.345 0.938 -0.686 1.406 -1.734 1.039 -2.327 -0.367 -0.594 -0.142 -1.404 0.5 -1.8 0.792 -0.489 0.906 -0.271 0.355 0.678 -0.447 0.771 -0.511 1.135 -0.144 0.809 2.145 -1.898 14.49 -23.213 13.95 -24.085 -0.381 -0.617 -0.173 -0.759 0.5 -0.341 1.477 0.912 1.537 -2.803 0.09 -5.51 -1.415 -2.642 -5.012 -3.957 -6.856 -2.505 -1.104 0.868 -1.263 0.842 -0.689 -0.115 1.086 -1.806 -2.423 -1.59 -5.145 0.317 -1.228 0.86 -1.994 1.95 -1.703 2.421 0.716 1.158 -3.477 2.418 -4.492 1.349 -1.268 -1.335 -2.821 -7.973 -2.12 -9.063 1.227 -1.911 12.629 -3.917 11.454 -2.015 -0.765 1.236 1.135 0.867 2.497 -0.486 1.006 -0.999 1.137 -0.937 0.663 0.311 -0.713 1.874 3.643 4.55 5.518 3.391 0.803 -0.495 0.995 -0.363 0.54 0.372 -0.649 1.051 2.601 2.985 7.668 4.562 1.461 0.455 1.589 0.928 0.702 2.586 -0.597 1.116 -0.833 2.438 -0.525 2.937 0.308 0.498 0.036 1.231 -0.606 1.628q-1.167 0.723 -0.361 -0.583t-0.361 -0.583c-0.642 0.397 -0.909 1.138 -0.593 1.649 0.315 0.51 0.135 0.928 -0.401 0.928 -0.536 0 -1.979 1.683 -3.206 3.738s-4.18 6.752 -6.562 10.436c-2.382 3.683 -4.33 7.012 -4.33 7.398s-0.684 1.458 -1.52 2.382c-1.368 1.511 -1.343 1.816 0.249 3.037 0.973 0.746 1.47 0.997 1.105 0.558 -0.365 -0.44 0.225 -1.688 1.313 -2.775 1.585 -1.585 1.739 -2.266 0.773 -3.429 -0.974 -1.174 -0.917 -1.341 0.302 -0.873 1.102 0.423 3.688 -2.949 9.613 -12.531 4.459 -7.21 7.876 -13.485 7.592 -13.944s0.008 -1.16 0.65 -1.557c0.729 -0.451 0.9 -0.29 0.456 0.429 -0.391 0.633 -0.472 1.151 -0.179 1.151 0.293 0 1.213 -1.317 2.046 -2.927l1.513 -2.927 -3.232 0.524c-2.532 0.411 -5.122 -0.464 -11.946 -4.034 -7.212 -3.772 -9.581 -4.539 -13.741 -4.445 -3.287 0.074 -5.857 0.768 -7.428 2.003m-4.507 11.095c-1.338 1.953 -2.853 3.291 -3.367 2.974s-0.614 -0.06 -0.224 0.572c0.791 1.278 -3.663 9.425 -4.718 8.632 -0.368 -0.276 -0.46 -0.218 -0.204 0.128 0.995 1.352 -1.527 4.27 -3.22 3.726 -1.487 -0.478 -1.52 -0.392 -0.234 0.612 1.136 0.886 1.194 1.289 0.243 1.675 -0.689 0.279 -0.999 0.917 -0.689 1.419s0.114 0.912 -0.436 0.912c-1.14 0 -0.746 2.942 0.777 5.786 0.567 1.06 0.711 2.282 0.319 2.717s-0.174 0.481 0.484 0.103c0.679 -0.389 1.64 0.143 2.222 1.231 1.204 2.25 6.009 4.12 10.583 4.12 2.825 0 3.652 -0.665 6.502 -5.234 1.796 -2.879 3.969 -5.81 4.828 -6.515s1.567 -2.05 1.574 -2.991c0.006 -1.027 0.722 -1.652 1.79 -1.565 1.408 0.114 1.54 -0.145 0.634 -1.236 -0.906 -1.093 -0.654 -1.578 1.211 -2.325 1.296 -0.518 1.781 -0.972 1.076 -1.007 -0.94 -0.046 -1.016 -0.559 -0.284 -1.926 1.242 -2.321 0.489 -3.121 -2.938 -3.121 -3.599 0 -10.648 -5.257 -12.222 -9.115l-1.273 -3.121zm15.168 -2.741c0.396 0.404 -0.165 1.976 -1.246 3.492 -1.991 2.797 -2.58 5.1 -1.216 4.754 0.412 -0.105 2.179 0.15 3.929 0.564 3.763 0.893 7.287 -0.655 7.287 -3.202 0 -1.114 -1.74 -2.602 -4.735 -4.052 -2.605 -1.26 -4.412 -1.961 -4.018 -1.557M59.824 99.444l0.007 27.665 4.49 4.41c4.289 4.211 4.658 4.369 8.218 3.489 3.072 -0.76 3.783 -1.414 4.048 -3.723 0.176 -1.541 -0.272 -3.534 -0.997 -4.428 -0.957 -1.181 -0.977 -1.422 -0.072 -0.878 0.715 0.43 1.246 0.249 1.246 -0.424 0 -0.681 -0.835 -0.953 -1.995 -0.65 -1.098 0.287 -1.745 0.115 -1.437 -0.382 0.307 -0.497 0.083 -0.904 -0.497 -0.904 -0.716 0 -1.056 -8.341 -1.056 -25.92V71.779H59.816zm25.08 -2.948c0.114 13.595 -0.127 25.259 -0.535 25.92S82.812 123.62 81.82 123.62c-1.526 0 -1.826 0.923 -1.94 5.982l-0.136 5.982h4.087c3.424 0 4.783 -0.664 8.392 -4.103l4.305 -4.103 0.114 -27.798L96.756 71.779H84.695zM112.653 72.835c0 0.58 0.444 0.782 0.986 0.447 0.541 -0.335 0.75 0.003 0.463 0.752 -0.686 1.789 2.973 9.917 4.033 8.957 0.451 -0.409 0.486 -0.163 0.077 0.544 -0.963 1.67 2.469 11.259 3.746 10.47 0.535 -0.331 0.682 -0.13 0.326 0.446 -0.627 1.014 9.89 29.595 13.117 35.649 0.877 1.645 1.613 3.439 1.636 3.988 0.024 0.558 2.894 0.997 6.522 0.997h6.48v-62.807l-6.282 -0.298 -6.281 -0.298 0.299 15.004c0.165 8.253 0.168 15.004 0.007 15.003 -0.161 0 -1.506 -1.202 -2.991 -2.67 -1.483 -1.468 -1.913 -2.087 -0.953 -1.374 2.58 1.916 2.197 -0.425 -0.498 -3.044 -1.234 -1.198 -1.606 -1.815 -0.827 -1.371 1.091 0.623 1.249 0.371 0.691 -1.1 -4.313 -11.349 -6.047 -15.205 -6.668 -14.821 -0.404 0.25 -0.521 -0.363 -0.26 -1.361 0.261 -0.999 -0.224 -2.396 -1.078 -3.104 -1.813 -1.504 -5.036 -0.633 -3.979 1.076 0.449 0.726 0.28 0.889 -0.452 0.437 -0.642 -0.397 -0.909 -1.138 -0.593 -1.649 0.318 -0.514 -1.229 -0.928 -3.473 -0.928 -2.225 0 -4.047 0.476 -4.047 1.056m52.837 0.498c0 0.876 0.479 1.259 1.097 0.876 0.763 -0.472 0.749 -0.029 -0.046 1.456 -0.703 1.315 -1.082 6.715 -0.987 14.078 0.126 9.696 0.427 11.944 1.6 11.944 0.866 0 1.163 -0.498 0.741 -1.246 -0.562 -0.997 -0.435 -0.997 0.639 0 0.739 0.686 2.951 1.246 4.917 1.246h3.573l0.295 -12.569c0.205 -8.793 -0.029 -12.371 -0.78 -11.906 -0.757 0.468 -0.781 -0.109 -0.08 -1.951 0.546 -1.438 0.994 -2.809 0.994 -3.048S174.762 71.779 171.472 71.779c-4.753 0 -5.982 0.319 -5.982 1.554m26.362 2.184c0.386 2.057 0.744 4.3 0.795 4.985s0.377 1.246 0.725 1.246c0.347 0 1.27 -0.56 2.05 -1.246 0.781 -0.685 0.636 -0.302 -0.323 0.852 -0.958 1.154 -1.528 2.725 -1.266 3.489s0.692 2.917 0.957 4.782c0.266 1.865 1.011 3.718 1.656 4.116 0.864 0.533 0.814 0.857 -0.186 1.229 -1.038 0.386 -0.888 0.902 0.635 2.188 1.097 0.926 1.385 1.371 0.641 0.987 -1.071 -0.552 -1.202 0.004 -0.632 2.668 0.396 1.85 1.113 3.854 1.593 4.453s0.613 1.348 0.296 1.666 -0.024 3.192 0.652 6.388 1.238 6.372 1.25 7.057c0.012 0.686 0.422 1.246 0.911 1.246 0.488 0 0.653 0.382 0.365 0.848s-0.011 3.607 0.616 6.979l1.139 6.13h12.336l-0.903 -5.234c-0.496 -2.879 -1.179 -5.907 -1.517 -6.729s-0.521 -1.899 -0.407 -2.392c0.115 -0.493 -0.103 -1.615 -0.483 -2.492 -0.381 -0.878 -0.825 -2.718 -0.99 -4.088s-0.778 -4.735 -1.365 -7.477c-0.586 -2.742 -1.265 -6.237 -1.509 -7.766 -1.278 -7.998 -2.885 -14.771 -3.611 -15.219 -0.451 -0.279 -0.566 -1.165 -0.257 -1.97s0.215 -2.249 -0.207 -3.208c-1.026 -2.33 -1.167 -2.896 -1.314 -5.234 -0.111 -1.764 -0.83 -1.994 -6.237 -1.994h-6.112zM220.322 73.075c0 0.713 0.561 1.9 1.246 2.639 0.998 1.075 0.996 1.201 -0.007 0.634 -1.41 -0.796 -1.956 0.337 -2.604 5.4 -0.245 1.919 -0.521 3.489 -0.614 3.489s-0.31 0.73 -0.484 1.621c-0.173 0.892 -0.636 2.631 -1.028 3.864 -0.515 1.625 -0.379 2.037 0.496 1.495 0.681 -0.421 0.529 0.287 -0.347 1.625 -0.853 1.303 -1.686 4.387 -1.847 6.852 -0.163 2.464 -0.599 4.712 -0.97 4.994 -0.372 0.282 -0.037 3.647 0.744 7.477 2.233 10.962 2.425 11.567 3.449 10.934 0.532 -0.329 0.968 -0.15 0.968 0.399s-0.374 1.228 -0.83 1.51c-1.25 0.773 -0.124 6.583 1.276 6.583 0.669 0 1.216 -0.673 1.216 -1.495s-0.46 -1.495 -1.022 -1.495 -0.322 -0.56 0.532 -1.246c1.579 -1.267 4.207 -12.262 3.287 -13.752 -0.277 -0.449 -0.018 -1.116 0.577 -1.483 0.594 -0.368 0.845 -1.281 0.558 -2.031 -0.288 -0.75 -0.123 -1.61 0.367 -1.913 0.489 -0.302 0.886 -1.326 0.881 -2.275 -0.004 -0.948 0.169 -2.398 0.387 -3.22 1.685 -6.381 2.769 -13.102 2.25 -13.943 -0.344 -0.556 -0.201 -1.011 0.317 -1.011 0.814 0 1.555 -3.139 2.705 -11.465 0.152 -1.097 0.589 -2.778 0.972 -3.738 0.621 -1.556 -0.016 -1.745 -5.89 -1.745 -4.739 0 -6.587 0.364 -6.587 1.296m37.172 0.031c-0.026 0.641 -0.402 2.024 -0.834 3.074 -0.615 1.492 -0.478 1.723 0.629 1.055 1.142 -0.689 1.186 -0.57 0.228 0.615 -0.653 0.808 -1.42 2.576 -1.705 3.93 -0.284 1.354 -1.433 6.679 -2.551 11.835 -2.83 13.042 -2.911 12.661 2.76 12.92 6.694 0.305 8.103 -1.583 9.19 -12.324 0.055 -0.548 0.525 0.064 1.044 1.36 0.826 2.063 1.16 2.189 2.679 1.014 1.632 -1.262 1.631 -1.22 -0.01 0.713 -1.844 2.172 -2.306 4.39 -0.914 4.39 0.457 0 0.743 1.01 0.635 2.243s0.207 3.028 0.7 3.988c1.04 2.026 1.613 1.912 -10.639 2.104 -8.186 0.128 -8.99 0.314 -9.18 2.133 -0.115 1.097 -0.897 5.041 -1.739 8.766s-1.754 8.548 -2.026 10.717l-0.496 3.945h5.954c6.511 0 5.864 0.663 7.534 -7.726 0.301 -1.508 0.798 -3.583 1.105 -4.611 0.41 -1.376 0.2 -1.663 -0.796 -1.087 -0.744 0.431 -1.057 0.453 -0.696 0.05 0.362 -0.404 6.263 -0.813 13.114 -0.908s12.277 -0.465 12.057 -0.82c-0.219 -0.356 -0.636 -2.538 -0.927 -4.849 -0.29 -2.312 -0.949 -4.99 -1.463 -5.952s-0.723 -1.962 -0.463 -2.222c0.458 -0.458 -3.122 -19.231 -3.921 -20.563 -0.218 -0.363 -0.692 -2.903 -1.055 -5.645 -1.297 -9.824 -0.701 -9.266 -9.939 -9.289 -5.599 -0.014 -8.241 0.352 -8.273 1.145m43.248 -0.662c-0.845 0.844 -0.741 7.289 0.153 9.445 0.576 1.391 2.508 1.636 12.882 1.636 6.712 0 11.976 -0.369 11.697 -0.819s-0.039 -1.108 0.531 -1.461 0.915 -0.048 0.765 0.679c-0.193 0.932 1.241 1.408 4.886 1.619l5.16 0.298 -0.338 -3.289c-0.186 -1.809 -0.378 -4.523 -0.425 -6.031L335.966 71.779h-17.28c-9.505 0 -17.58 0.299 -17.945 0.665M351.917 88.849c0 14.113 0.23 16.879 1.329 15.967 1.003 -0.831 1.33 -0.753 1.33 0.321 0 0.784 -0.427 1.337 -0.948 1.23s-1.064 0.487 -1.206 1.317c-0.205 1.198 0.76 1.477 4.666 1.35 2.709 -0.089 5.219 -0.456 5.578 -0.814s0.775 -3.569 0.923 -7.133c0.205 -4.94 -0.025 -6.305 -0.966 -5.739 -0.902 0.542 -0.885 0.311 0.062 -0.857 0.907 -1.121 1.244 -4.762 1.127 -12.155L363.642 71.779H351.917zm14.954 -11.202v5.867l8.474 -0.063 8.474 -0.063V71.779h-16.948zm164.376 -5.12a5.683 5.683 0 0 0 0 1.495c0.065 0.411 -0.218 0.652 -0.63 0.536 -0.412 -0.117 -1.789 0.365 -3.063 1.07 -2.309 1.279 -2.332 1.447 -1.212 8.862 0.021 0.138 0.935 0.249 2.032 0.249 1.932 0 1.994 0.668 2.005 21.683 0.006 11.926 0.289 23.366 0.629 25.422 0.604 3.656 0.715 3.738 4.974 3.738H540.337V71.779h-4.486c-2.467 0 -4.539 0.337 -4.604 0.748M577.224 73.869c-1.919 1.084 -3.378 2.403 -3.24 2.931s-0.226 0.961 -0.807 0.961 -0.779 0.449 -0.44 0.997 0.119 0.997 -0.489 0.997c-0.787 0 -1.019 7.06 -0.807 24.536l0.299 24.536 3.382 2.822c4.662 3.889 11.776 3.958 15.583 0.151 1.55 -1.549 2.408 -3.322 2.127 -4.392 -0.258 -0.987 -0.062 -1.544 0.435 -1.236 0.531 0.328 0.895 -9.229 0.882 -23.178 -0.02 -21.018 -0.219 -23.969 -1.745 -25.773 -4.533 -5.362 -9.628 -6.486 -15.181 -3.351m2.812 9.637c-0.222 1.515 -0.12 3.87 0.227 5.234s0.232 3 -0.255 3.637c-0.546 0.712 -0.426 1.443 0.312 1.898 0.761 0.471 0.939 0.32 0.487 -0.409 -0.391 -0.633 -0.246 -1.151 0.321 -1.151s1.92 1.683 3.006 3.738c2.187 4.143 2.213 4.079 2.572 -6.231 0.247 -7.086 -0.741 -9.471 -3.922 -9.471 -1.797 0 -2.438 0.642 -2.749 2.755m-467.251 26.577L112.505 135.583h12.24l-0.321 -13.499c-0.177 -7.425 -0.767 -13.818 -1.311 -14.206 -0.544 -0.389 -1.112 -1.38 -1.262 -2.202 -0.621 -3.4 -5.733 -15.951 -6.496 -15.951 -0.454 0 -0.589 -0.383 -0.3 -0.85s-0.041 -1.624 -0.732 -2.569c-1.027 -1.404 -1.309 2.965 -1.538 23.779m199.771 -22.538c-0.331 0.331 -0.538 11.275 -0.462 24.319l0.141 23.718h12.801l-0.267 -24.176 -0.267 -24.176 -5.672 -0.144c-3.119 -0.08 -5.943 0.127 -6.274 0.458m56.06 10.841c-1.364 0.357 -1.745 1.528 -1.745 5.367 0 2.702 0.113 4.936 0.249 4.965s2.754 0.289 5.815 0.576l5.566 0.524 0.165 -4.215c0.091 -2.318 -0.396 -4.907 -1.08 -5.752 -0.996 -1.23 -0.996 -1.388 0.001 -0.79 0.686 0.412 1.246 0.273 1.246 -0.307 0 -1.037 -6.731 -1.28 -10.219 -0.369m-200.726 7.139c-1.981 0.615 -2.099 1.398 -2.313 15.353l-0.226 14.705H177.454v-13.875c0 -7.632 -0.272 -14.585 -0.605 -15.452 -0.626 -1.631 -4.931 -1.981 -8.959 -0.73m412.177 1.728c-0.082 1.6 -0.097 6.237 -0.033 10.305 0.121 7.712 1.153 9.669 4.234 8.02 0.916 -0.49 1.871 -0.688 2.12 -0.439 0.249 0.25 0.384 -1 0.297 -2.776 -0.093 -1.914 0.487 -3.738 1.423 -4.478 1.421 -1.125 1.41 -1.19 -0.104 -0.666 -1.244 0.432 -2.268 -0.541 -3.93 -3.736 -1.235 -2.376 -2.396 -5.19 -2.577 -6.253 -0.533 -3.125 -1.27 -3.113 -1.431 0.022M430.649 110.36c-1.625 1.916 -1.968 2.674 -1.968 4.346 0 0.58 -0.56 0.733 -1.246 0.339 -0.685 -0.395 -0.921 -0.358 -0.524 0.081 0.813 0.901 -2.19 6.5 -3.488 6.5 -0.462 0 -0.58 0.421 -0.262 0.936s-0.072 1.299 -0.867 1.745c-0.795 0.445 -1.427 1.033 -1.403 1.307 0.023 0.274 -1.006 2.274 -2.286 4.445s-2.422 4.576 -2.534 5.345c-0.248 1.691 1.645 6.162 3.378 7.976 0.692 0.725 1.258 1.761 1.258 2.302s0.524 0.661 1.166 0.264c0.752 -0.465 0.968 -0.203 0.608 0.733 -0.452 1.177 0.538 1.437 5.187 1.359 5.46 -0.091 8.989 -1.747 8.989 -4.217 0 -0.484 0.706 -1.749 1.569 -2.813 0.863 -1.064 1.242 -1.305 0.843 -0.534q-0.723 1.394 0.441 0.678c0.642 -0.397 0.907 -1.141 0.589 -1.656 -0.481 -0.779 2.571 -6.154 4.485 -7.9 0.3 -0.274 0.692 -1.171 0.87 -1.994s0.739 -1.645 1.246 -1.827 0.922 -0.982 0.922 -1.777c0 -0.794 0.598 -1.673 1.329 -1.953 1.591 -0.611 1.786 -3.367 0.249 -3.53 -0.593 -0.063 -1.865 -0.035 -2.824 0.063s-1.745 -0.285 -1.745 -0.851c0 -0.565 -0.623 -0.789 -1.386 -0.496 -1.386 0.532 -8.177 -5.443 -10.079 -8.869 -0.96 -1.729 -1.053 -1.729 -2.518 0m-78.139 3.029c-1.149 1.15 -0.604 3.377 0.653 2.666 0.997 -0.562 0.997 -0.435 0 0.639 -0.801 0.863 -1.246 4.478 -1.246 10.116v8.773h11.888l-0.061 -5.732c-0.034 -3.152 -0.577 -6.379 -1.208 -7.17 -0.664 -0.83 -0.704 -1.171 -0.094 -0.808 0.681 0.408 1.073 -1.089 1.105 -4.223l0.05 -4.854h-5.247c-2.885 0 -5.513 0.267 -5.84 0.593M366.871 129.601v5.982h17.071l-0.293 -5.905c-0.272 -5.504 -1.27 -6.993 -3.056 -4.563 -0.454 0.617 -0.738 0.522 -0.748 -0.249 -0.01 -0.867 -1.984 -1.246 -6.495 -1.246H366.871zm-94.047 -4.318c-0.366 0.367 0.037 1.444 0.896 2.394 1.039 1.147 1.205 1.947 0.497 2.384q-1.065 0.659 -0.1 2.46c0.53 0.992 0.681 2.086 0.335 2.433s2.41 0.629 6.123 0.629c5.758 0 6.663 -0.233 6.146 -1.582 -0.334 -0.871 -0.874 -3.253 -1.201 -5.295 -0.561 -3.511 -0.807 -3.724 -4.571 -3.946 -3.013 -0.177 -3.799 0.079 -3.246 1.057 0.588 1.038 0.468 1.047 -0.61 0.046 -1.478 -1.372 -3.238 -1.61 -4.27 -0.579M551.304 131.214V135.583h3.801c3.798 0 3.801 -0.003 4.031 -4.424l0.229 -4.424 -4.031 0.056 -4.031 0.056z"></path>
</svg>